<?xml version="1.0" encoding="UTF-8"?>
<svg width="90px" height="122px" viewBox="0 0 90 122" version="1.1" xmlns="http://www.w3.org/2000/svg" xmlns:xlink="http://www.w3.org/1999/xlink">
    <!-- Generator: sketchtool 51.2 (57519) - http://www.bohemiancoding.com/sketch -->
    <title>83604026-AFE1-4D45-B3C1-2958F847F0C3</title>
    <desc>Created with sketchtool.</desc>
    <defs></defs>
    <g id="Face-Match" stroke="none" stroke-width="1" fill="none" fill-rule="evenodd">
        <g id="Error-Loading-Page" transform="translate(-596.000000, -189.000000)">
            <g id="error-loading" transform="translate(596.000000, 189.000000)">
                <polygon id="paper-corner" fill="#9ECFEF" points="17.9494228 17 17.9494228 1 1.9494228 17"></polygon>
                <path d="M61,59.447241 L68.4747114,51.9725296 L69.888925,53.3867431 L62.4142136,60.8614545 L69.888925,68.3361659 L68.4747114,69.7503795 L61,62.2756681 L53.5252886,69.7503795 L52.111075,68.3361659 L59.5857864,60.8614545 L52.111075,53.3867431 L53.5252886,51.9725296 L61,59.447241 Z M28.2727273,59.447241 L35.7474387,51.9725296 L37.1616522,53.3867431 L29.6869408,60.8614545 L37.1616522,68.3361659 L35.7474387,69.7503795 L28.2727273,62.2756681 L20.7980159,69.7503795 L19.3838023,68.3361659 L26.8585137,60.8614545 L19.3838023,53.3867431 L20.7980159,51.9725296 L28.2727273,59.447241 Z M17.3636364,1 L19.3636364,1 L19.3636364,18.3636364 L2,18.3636364 L2,16.3636364 L17.3636364,16.3636364 L17.3636364,1 Z M31.842925,88.9798341 L30.4287114,87.5656205 C34.2484313,83.7459006 39.3425315,81.6790909 44.6358182,81.6790909 C49.9273823,81.6790909 55.023865,83.7465605 58.842925,87.5656205 L57.4287114,88.9798341 C53.9885119,85.5396345 49.4021188,83.6790909 44.6358182,83.6790909 C39.8678308,83.6790909 35.2838116,85.5389474 31.842925,88.9798341 Z M89.2727273,0 L89.2727273,122 L0,122 L0,16.9494228 L16.9494228,0 L89.2727273,0 Z M87.2727273,2 L17.7778499,2 L2,17.7778499 L2,120 L87.2727273,120 L87.2727273,2 Z" id="error-state-paper-outline" fill="#0686D8" fill-rule="nonzero"></path>
            </g>
        </g>
    </g>
</svg>