<svg width="149" height="33" viewBox="0 0 149 33" fill="none" xmlns="http://www.w3.org/2000/svg">
<path d="M5.54661 2.54291L1.03125 13.0444L10.8042 29.8481H21.4981L5.54661 2.54291Z" fill="white" fill-opacity="0.53"/>
<path d="M26.7552 2.54291L10.8037 29.8481H21.4976L31.2706 13.0444L26.7552 2.54291Z" fill="white"/>
<path d="M18.4531 2.54291L22.5974 9.65615L26.7553 2.54291H18.4531Z" fill="white" fill-opacity="0.53"/>
<path fill-rule="evenodd" clip-rule="evenodd" d="M85.1871 8.98948H96.8776V10.5565H91.8468V23.4015H90.2111V10.5565H85.1803V8.98948H85.1871ZM81.0292 23.4015H82.6649V8.98948H81.0292V23.4015ZM139.853 10.5565V8.98948H129.248V23.4015H139.853V21.8345H130.884V16.9756H138.897V15.388H130.884V10.5565H139.853ZM109.936 10.9688C111.283 12.364 111.963 14.1028 111.963 16.1921C111.963 18.2814 111.29 20.027 109.936 21.4153C108.554 22.8517 106.795 23.5733 104.644 23.5733C102.493 23.5733 100.733 22.8517 99.3518 21.4153C98.0047 20.0202 97.3243 18.2814 97.3243 16.1921C97.3243 14.1028 97.9978 12.3571 99.3518 10.9688C100.733 9.53242 102.493 8.81079 104.644 8.81079C106.795 8.81079 108.561 9.53242 109.936 10.9688ZM110.327 16.1921C110.327 14.522 109.819 13.1543 108.802 12.0753C107.743 10.9551 106.355 10.3984 104.644 10.3984C102.932 10.3984 101.544 10.9551 100.486 12.0753C99.4686 13.1475 98.96 14.522 98.96 16.1921C98.96 17.8621 99.4686 19.2298 100.486 20.3088C101.544 21.4291 102.932 21.9857 104.644 21.9857C106.355 21.9857 107.743 21.4291 108.802 20.3088C109.819 19.2367 110.327 17.8621 110.327 16.1921ZM125.145 21.1129L116.238 8.98261H114.341V23.3946H115.977V11.23L124.884 23.4015H126.781V8.98948H125.145V21.1129ZM74.6032 17.4223L78.8299 23.3946H76.933L72.8163 17.5803H69.0226V23.3946H67.4212V8.98261H73.0225C74.5276 8.98261 75.7509 9.37435 76.6513 10.1441C77.5516 10.9138 78.0052 11.9654 78.0052 13.2849C78.0052 14.3227 77.7165 15.2024 77.1392 15.9103C76.5619 16.6182 75.7578 17.113 74.7544 17.381L74.6032 17.4223ZM73.0019 16.1027C75.2011 16.1027 76.3214 15.1543 76.3214 13.2849C76.3214 11.4155 75.208 10.4671 73.0019 10.4671H69.0157V16.0958H73.0019V16.1027ZM54.4456 23.4015H65.0502V21.8345H56.0813V16.9756H64.0948V15.388H56.0813V10.5565H65.0502V8.98948H54.4456V23.4015ZM45.2499 21.5528L39.9305 8.98948H38.1436L44.3152 23.4015H46.1846L52.3563 8.98948H50.5694L45.2499 21.5528ZM144.732 22.9204C144.732 23.8895 143.949 24.6592 142.959 24.6592C141.969 24.6592 141.179 23.8895 141.179 22.9204C141.179 21.9514 141.969 21.1885 142.973 21.1885C143.949 21.1954 144.732 21.9514 144.732 22.9204ZM141.619 22.9204C141.619 23.6902 142.196 24.3018 142.966 24.3018C143.715 24.3156 144.285 23.6902 144.285 22.9342C144.285 22.1644 143.715 21.5459 142.945 21.5459C142.203 21.539 141.619 22.1644 141.619 22.9204ZM142.684 23.8208H142.285V22.0888C142.444 22.0682 142.663 22.0339 142.952 22.0339C143.282 22.0339 143.426 22.0888 143.543 22.1713C143.646 22.2469 143.722 22.3706 143.722 22.5424C143.722 22.7555 143.564 22.8929 143.365 22.9548V22.9754C143.536 23.0304 143.619 23.1678 143.667 23.3946C143.722 23.6558 143.763 23.752 143.791 23.8139H143.371C143.316 23.752 143.289 23.6008 143.234 23.3946C143.2 23.216 143.096 23.1335 142.877 23.1335H142.684V23.8208ZM142.698 22.8448H142.89C143.11 22.8448 143.289 22.7692 143.289 22.5905C143.289 22.4325 143.172 22.3294 142.918 22.3294C142.815 22.3294 142.739 22.3431 142.698 22.35V22.8448Z" fill="white"/>
</svg>
